<svg width="24" height="24" viewBox="0 0 24 24" fill="none" xmlns="http://www.w3.org/2000/svg">
<path fill-rule="evenodd" clip-rule="evenodd" d="M4.26245 5.07687C3.22583 5.34531 2.48305 6.02712 2.12075 7.04264L2 7.38109V11.506V15.6308L2.12105 15.9693C2.46499 16.9307 3.16924 17.6085 4.12862 17.9015L4.45114 18H9.76194H15.0727L15.4168 17.8848C16.3488 17.5725 17.0526 16.877 17.3647 15.9599C17.4728 15.6423 17.4773 15.589 17.4931 14.4357C17.502 13.7783 17.5213 13.2405 17.5358 13.2405C17.594 13.2405 19.3037 14.227 20.2229 14.791C21.2633 15.4293 21.4959 15.5251 22.0063 15.5251C22.8838 15.5251 23.7018 14.8888 23.9372 14.0232C24.0217 13.7126 24.0206 9.29579 23.936 8.98315C23.7467 8.28383 23.1343 7.68857 22.4427 7.5317C22.1388 7.46274 21.7082 7.47912 21.4055 7.57109C21.2226 7.62668 20.8447 7.82984 20.2937 8.16884C19.5953 8.59854 17.5693 9.7714 17.5255 9.7714C17.5182 9.7714 17.5024 9.25264 17.4904 8.61855C17.466 7.32495 17.4444 7.19723 17.1507 6.60798C16.8207 5.94568 16.1708 5.39218 15.4168 5.13107L15.0727 5.01193L9.82645 5.00326C4.75216 4.99488 4.56974 4.9973 4.26245 5.07687ZM14.786 7.00215C15.0493 7.07907 15.2775 7.26301 15.4086 7.50399L15.5028 7.67724V11.486V15.2946L15.3929 15.5046C15.2554 15.7675 14.9922 15.9687 14.707 16.0289C14.4155 16.0904 5.05021 16.0918 4.77946 16.0304C4.49169 15.9651 4.24034 15.7722 4.11142 15.5176L3.99961 15.2969V11.506V7.71502L4.11142 7.4943C4.2366 7.24715 4.49298 7.04514 4.76003 6.98337C4.85128 6.96226 7.06375 6.94347 9.74337 6.94111C13.97 6.93738 14.5901 6.94491 14.786 7.00215ZM21.9746 11.5108V13.5464L21.8779 13.484C21.4037 13.1785 20.0331 12.3636 19.3639 11.9892C18.9095 11.7351 18.537 11.5169 18.5361 11.5044C18.5352 11.4919 18.9457 11.2489 19.4482 10.9644C19.9509 10.6798 20.7104 10.23 21.1361 9.96487C21.5618 9.69969 21.9246 9.48101 21.9424 9.47898C21.9601 9.47695 21.9746 10.3913 21.9746 11.5108Z" fill="#80808A"/>
</svg>
