<svg width="242" height="25" viewBox="0 0 242 25" fill="none" xmlns="http://www.w3.org/2000/svg">
<path d="M6.36751 15.5832C8.13943 15.5832 9.57585 14.1468 9.57585 12.3748C9.57585 10.6029 8.13943 9.1665 6.36751 9.1665C4.5956 9.1665 3.15918 10.6029 3.15918 12.3748C3.15918 14.1468 4.5956 15.5832 6.36751 15.5832Z" fill="#D4D6DF"/>
<path d="M17.3675 15.5832C19.1394 15.5832 20.5758 14.1468 20.5758 12.3748C20.5758 10.6029 19.1394 9.1665 17.3675 9.1665C15.5956 9.1665 14.1592 10.6029 14.1592 12.3748C14.1592 14.1468 15.5956 15.5832 17.3675 15.5832Z" fill="#D4D6DF"/>
<path d="M28.3675 15.5832C30.1394 15.5832 31.5758 14.1468 31.5758 12.3748C31.5758 10.6029 30.1394 9.1665 28.3675 9.1665C26.5956 9.1665 25.1592 10.6029 25.1592 12.3748C25.1592 14.1468 26.5956 15.5832 28.3675 15.5832Z" fill="#D4D6DF"/>
<path d="M39.3675 15.5832C41.1394 15.5832 42.5758 14.1468 42.5758 12.3748C42.5758 10.6029 41.1394 9.1665 39.3675 9.1665C37.5956 9.1665 36.1592 10.6029 36.1592 12.3748C36.1592 14.1468 37.5956 15.5832 39.3675 15.5832Z" fill="#D4D6DF"/>
<path d="M50.3675 15.5832C52.1394 15.5832 53.5758 14.1468 53.5758 12.3748C53.5758 10.6029 52.1394 9.1665 50.3675 9.1665C48.5956 9.1665 47.1592 10.6029 47.1592 12.3748C47.1592 14.1468 48.5956 15.5832 50.3675 15.5832Z" fill="#D4D6DF"/>
<path d="M61.3675 15.5832C63.1394 15.5832 64.5758 14.1468 64.5758 12.3748C64.5758 10.6029 63.1394 9.1665 61.3675 9.1665C59.5956 9.1665 58.1592 10.6029 58.1592 12.3748C58.1592 14.1468 59.5956 15.5832 61.3675 15.5832Z" fill="#D4D6DF"/>
<path d="M72.3675 15.5832C74.1394 15.5832 75.5758 14.1468 75.5758 12.3748C75.5758 10.6029 74.1394 9.1665 72.3675 9.1665C70.5956 9.1665 69.1592 10.6029 69.1592 12.3748C69.1592 14.1468 70.5956 15.5832 72.3675 15.5832Z" fill="#D4D6DF"/>
<path d="M83.3675 15.5832C85.1394 15.5832 86.5758 14.1468 86.5758 12.3748C86.5758 10.6029 85.1394 9.1665 83.3675 9.1665C81.5956 9.1665 80.1592 10.6029 80.1592 12.3748C80.1592 14.1468 81.5956 15.5832 83.3675 15.5832Z" fill="#D4D6DF"/>
<path d="M94.3675 15.5832C96.1394 15.5832 97.5758 14.1468 97.5758 12.3748C97.5758 10.6029 96.1394 9.1665 94.3675 9.1665C92.5956 9.1665 91.1592 10.6029 91.1592 12.3748C91.1592 14.1468 92.5956 15.5832 94.3675 15.5832Z" fill="#D4D6DF"/>
<path d="M105.368 15.5832C107.139 15.5832 108.576 14.1468 108.576 12.3748C108.576 10.6029 107.139 9.1665 105.368 9.1665C103.596 9.1665 102.159 10.6029 102.159 12.3748C102.159 14.1468 103.596 15.5832 105.368 15.5832Z" fill="#D4D6DF"/>
<path d="M116.368 15.5832C118.139 15.5832 119.576 14.1468 119.576 12.3748C119.576 10.6029 118.139 9.1665 116.368 9.1665C114.596 9.1665 113.159 10.6029 113.159 12.3748C113.159 14.1468 114.596 15.5832 116.368 15.5832Z" fill="#D4D6DF"/>
<path d="M127.368 15.5832C129.139 15.5832 130.576 14.1468 130.576 12.3748C130.576 10.6029 129.139 9.1665 127.368 9.1665C125.596 9.1665 124.159 10.6029 124.159 12.3748C124.159 14.1468 125.596 15.5832 127.368 15.5832Z" fill="#D4D6DF"/>
<path d="M138.368 15.5832C140.139 15.5832 141.576 14.1468 141.576 12.3748C141.576 10.6029 140.139 9.1665 138.368 9.1665C136.596 9.1665 135.159 10.6029 135.159 12.3748C135.159 14.1468 136.596 15.5832 138.368 15.5832Z" fill="#D4D6DF"/>
<path d="M145.938 17.7576C147.082 17.7576 148.009 16.8301 148.009 15.6869V9.06343C148.009 7.9202 147.082 6.99268 145.938 6.99268C144.795 6.99268 143.868 7.92021 143.868 9.06343V15.6869C143.868 16.8301 144.795 17.7576 145.938 17.7576Z" fill="white"/>
<path d="M153.526 19.1831V5.56685C153.526 4.42295 152.599 3.49609 151.455 3.49609C150.311 3.49609 149.384 4.42295 149.384 5.56685V19.1831C149.384 20.3264 150.311 21.2539 151.455 21.2539C152.599 21.2539 153.526 20.3264 153.526 19.1831Z" fill="white"/>
<path d="M159.042 20.3484V4.40181C159.042 3.25791 158.116 2.33105 156.972 2.33105C155.828 2.33105 154.901 3.25791 154.901 4.40181V20.3484C154.901 21.4916 155.828 22.4191 156.972 22.4191C158.116 22.4191 159.042 21.4916 159.042 20.3484Z" fill="white"/>
<path d="M164.559 22.6792V2.07076C164.559 0.926856 163.632 0 162.488 0C161.344 0 160.417 0.926856 160.417 2.07076V22.6792C160.417 23.8225 161.344 24.75 162.488 24.75C163.632 24.75 164.559 23.8225 164.559 22.6792Z" fill="white"/>
<path d="M170.075 21.5138V3.23628C170.075 2.09238 169.148 1.16553 168.004 1.16553C166.861 1.16553 165.934 2.09238 165.934 3.23628V21.5138C165.934 22.6571 166.861 23.5846 168.004 23.5846C169.148 23.5846 170.075 22.657 170.075 21.5138Z" fill="white"/>
<path d="M175.592 18.0177V6.73238C175.592 5.58848 174.664 4.66162 173.521 4.66162C172.378 4.66162 171.45 5.58848 171.45 6.73238V18.0177C171.45 19.161 172.378 20.0885 173.521 20.0885C174.664 20.0885 175.592 19.161 175.592 18.0177Z" fill="white"/>
<path d="M179.038 5.82715C177.894 5.82715 176.967 6.754 176.967 7.8979V16.8523C176.967 17.9955 177.894 18.9231 179.038 18.9231C180.181 18.9231 181.108 17.9955 181.108 16.8523V7.8979C181.108 6.754 180.181 5.82715 179.038 5.82715Z" fill="white"/>
<path d="M184.554 17.7576C185.698 17.7576 186.625 16.8301 186.625 15.6869V9.06343C186.625 7.9202 185.698 6.99268 184.554 6.99268C183.41 6.99268 182.483 7.92021 182.483 9.06343V15.6869C182.483 16.8301 183.41 17.7576 184.554 17.7576Z" fill="white"/>
<path d="M192.142 18.0177V6.73238C192.142 5.58848 191.214 4.66162 190.071 4.66162C188.928 4.66162 188 5.58848 188 6.73238V18.0177C188 19.161 188.928 20.0885 190.071 20.0885C191.214 20.0885 192.142 19.161 192.142 18.0177Z" fill="white"/>
<path d="M195.587 5.82715C194.444 5.82715 193.516 6.754 193.516 7.8979V16.8523C193.516 17.9955 194.444 18.9231 195.587 18.9231C196.73 18.9231 197.658 17.9955 197.658 16.8523V7.8979C197.658 6.754 196.73 5.82715 195.587 5.82715Z" fill="white"/>
<path d="M201.103 17.7576C202.247 17.7576 203.174 16.8301 203.174 15.6869V9.06343C203.174 7.9202 202.247 6.99268 201.103 6.99268C199.96 6.99268 199.033 7.92021 199.033 9.06343V15.6869C199.033 16.8301 199.96 17.7576 201.103 17.7576Z" fill="white"/>
<path d="M208.691 18.0177V6.73238C208.691 5.58848 207.763 4.66162 206.62 4.66162C205.477 4.66162 204.549 5.58848 204.549 6.73238V18.0177C204.549 19.161 205.477 20.0885 206.62 20.0885C207.763 20.0885 208.691 19.161 208.691 18.0177Z" fill="white"/>
<path d="M212.137 5.82715C210.993 5.82715 210.066 6.754 210.066 7.8979V16.8523C210.066 17.9955 210.993 18.9231 212.137 18.9231C213.28 18.9231 214.207 17.9955 214.207 16.8523V7.8979C214.207 6.754 213.28 5.82715 212.137 5.82715Z" fill="white"/>
<path d="M217.653 17.7576C218.797 17.7576 219.724 16.8301 219.724 15.6869V9.06343C219.724 7.9202 218.797 6.99268 217.653 6.99268C216.509 6.99268 215.583 7.92021 215.583 9.06343V15.6869C215.583 16.8301 216.509 17.7576 217.653 17.7576Z" fill="white"/>
<path d="M225.24 19.1831V5.56685C225.24 4.42295 224.313 3.49609 223.169 3.49609C222.025 3.49609 221.099 4.42295 221.099 5.56685V19.1831C221.099 20.3264 222.025 21.2539 223.169 21.2539C224.313 21.2539 225.24 20.3264 225.24 19.1831Z" fill="white"/>
<path d="M230.757 20.3484V4.40181C230.757 3.25791 229.83 2.33105 228.686 2.33105C227.542 2.33105 226.615 3.25791 226.615 4.40181V20.3484C226.615 21.4916 227.542 22.4191 228.686 22.4191C229.83 22.4191 230.757 21.4916 230.757 20.3484Z" fill="white"/>
</svg>
